<?xml version="1.0" encoding="utf-8"?>
<svg id="Layer_1" data-name="Layer 1" viewBox="0 0 122.88 122.09" xmlns="http://www.w3.org/2000/svg">
  <title>comment-bubble</title>
  <path d="M 24.931 90.92 L 23.949 91.894 C 21.768 94.23 17.877 93.328 16.945 90.272 C 16.831 89.897 16.77 89.508 16.765 89.116 L 16.765 79.393 L 15.479 79.393 C 13.564 79.393 11.727 78.629 10.378 77.269 C 9.777 76.663 9.286 75.958 8.925 75.185 L 8.574 75.185 C 3.844 75.181 0.009 71.35 0 66.619 L 0 8.566 C 0.008 6.446 0.805 4.406 2.235 2.842 L 2.523 2.523 C 4.123 0.914 6.297 0.006 8.566 0 L 83.935 0 C 88.061 0.023 91.594 2.963 92.365 7.017 C 93.728 7.319 94.977 8.003 95.966 8.989 C 97.326 10.342 98.093 12.18 98.097 14.098 L 98.097 72.152 C 98.093 76.149 94.853 79.388 90.856 79.393 L 47.747 79.393 L 29.849 96.54 C 28.386 98.15 25.729 97.573 25.066 95.501 C 24.978 95.225 24.932 94.938 24.931 94.648 L 24.931 90.92 Z M 22.305 48.194 C 20.133 48.079 18.9 45.655 20.086 43.831 C 20.579 43.074 21.403 42.598 22.305 42.55 L 61.367 42.55 C 63.539 42.435 65.022 44.714 64.036 46.653 C 63.529 47.65 62.483 48.254 61.367 48.194 L 22.305 48.194 Z M 22.305 29.833 C 20.133 29.717 18.9 27.294 20.086 25.47 C 20.579 24.713 21.403 24.237 22.305 24.189 L 70.204 24.189 C 72.376 24.305 73.609 26.729 72.423 28.552 C 71.93 29.309 71.106 29.785 70.204 29.833 L 22.305 29.833 Z M 20.836 89.116 L 39.684 71.05 L 83.935 71.05 C 86.373 71.046 88.349 69.073 88.358 66.635 L 88.358 8.566 C 88.336 6.134 86.367 4.169 83.935 4.151 L 8.566 4.151 C 6.139 4.177 4.177 6.139 4.151 8.566 L 4.151 66.619 C 4.16 69.057 6.129 71.033 8.566 71.05 L 20.836 71.05 L 20.836 89.132 L 20.836 89.116 Z" style="fill: rgb(14, 54, 89);"/>
</svg>